<?xml version="1.0" encoding="utf-8"?>
<!-- Generator: Adobe Illustrator 23.1.1, SVG Export Plug-In . SVG Version: 6.00 Build 0)  -->
<svg version="1.1" id="レイヤー_1" xmlns="http://www.w3.org/2000/svg" xmlns:xlink="http://www.w3.org/1999/xlink" x="0px"
	 y="0px" viewBox="0 0 40 40" style="enable-background:new 0 0 40 40;" xml:space="preserve">
<style type="text/css">
	.st0{fill:#0974E8;}
	.st1{fill:#FFCA3A;}
</style>
<path class="st0" d="M38.1,7.7H1.9C0.8,7.7,0,6.9,0,5.9C0,4.8,0.8,4,1.9,4h36.3c1,0,1.9,0.8,1.9,1.9C40,6.9,39.2,7.7,38.1,7.7z"/>
<path class="st0" d="M26.5,18.2h-21c-1,0-1.9-0.8-1.9-1.9s0.8-1.9,1.9-1.9h21c1,0,1.9,0.8,1.9,1.9S27.5,18.2,26.5,18.2z"/>
<path class="st0" d="M13.5,28.8H1.9c-1,0-1.9-0.8-1.9-1.9v-0.1c0-1,0.8-1.9,1.9-1.9h11.7c1,0,1.9,0.8,1.9,1.9v0.1
	C15.4,28,14.5,28.8,13.5,28.8z"/>
<path class="st1" d="M28.4,36.8c4.2,0,7.6-3.4,7.6-7.6c0-4.2-3.4-7.6-7.6-7.6c-4.2,0-7.6,3.4-7.6,7.6C20.7,33.4,24.1,36.8,28.4,36.8
	z"/>
</svg>
