<?xml version="1.0" encoding="utf-8"?>
<!-- Generator: Adobe Illustrator 24.0.1, SVG Export Plug-In . SVG Version: 6.00 Build 0)  -->
<svg version="1.1" id="レイヤー_1" xmlns="http://www.w3.org/2000/svg" xmlns:xlink="http://www.w3.org/1999/xlink" x="0px"
	 y="0px" viewBox="0 0 327.2 75.3" style="enable-background:new 0 0 327.2 75.3;" xml:space="preserve">
<style type="text/css">
	.st0{fill:#252729;}
</style>
<g>
	<path class="st0" d="M35.6,2.1C43.1,2.1,50.2,3.7,57,7l-5.7,14.7c-2.6-1.2-5.1-2.2-7.7-3c-2.6-0.8-5.3-1.2-8.2-1.2
		c-4.5,0-7.9,1.8-10.4,5.5c-2.5,3.6-3.7,8.7-3.7,15.1c0,13.3,5.1,20,15.2,20c3.1,0,6-0.4,8.9-1.3c2.9-0.9,5.8-1.9,8.7-3.1v15.8
		c-5.8,2.6-12.3,3.8-19.6,3.8c-10.5,0-18.5-3-24-9.1S2,49.4,2,37.9C2,30.7,3.3,24.4,6,19c2.7-5.4,6.6-9.6,11.7-12.5
		C22.8,3.6,28.7,2.1,35.6,2.1 M35.6,0.1c-7.2,0-13.5,1.6-18.9,4.6c-5.4,3.1-9.6,7.6-12.4,13.4C1.4,23.8,0,30.5,0,37.9
		c0,11.9,3,21.2,8.9,27.6c5.9,6.5,14.5,9.7,25.5,9.7c7.5,0,14.4-1.3,20.4-4l1.2-0.5v-1.3V53.6v-3l-2.8,1.1c-2.8,1.2-5.7,2.2-8.5,3
		c-2.7,0.8-5.5,1.2-8.3,1.2c-11.8,0-13.2-10.3-13.2-18c0-6,1.1-10.7,3.4-14c2.1-3.1,5-4.6,8.8-4.6c2.7,0,5.3,0.4,7.6,1.1
		c2.5,0.8,5,1.8,7.4,2.9l1.9,0.9l0.8-2l5.7-14.7L59.6,6l-1.7-0.8C50.8,1.8,43.3,0.1,35.6,0.1L35.6,0.1z"/>
	<path class="st0" d="M90.2,3.1c18.8,0,28.2,6.8,28.2,20.5c0,8-3.9,14.2-11.7,18.6l20.2,30.2h-21.2L90.9,47.1h-4.7v25.2H67.5V3.1
		H90.2 M86.2,33.1h3.5c6.5,0,9.8-2.9,9.8-8.7c0-4.8-3.2-7.2-9.6-7.2h-3.7V33.1 M90.2,1.1H67.5h-2v2v69.2v2h2h18.7h2v-2V49.1h1.6
		l14.1,24.2l0.6,1h1.1h21.2h3.7l-2.1-3.1l-19-28.4c7.2-4.7,10.9-11.1,10.9-19.2c0-7.5-2.7-13.2-7.9-17C107.5,2.9,100,1.1,90.2,1.1
		L90.2,1.1z M88.2,19.3h1.7c7.6,0,7.6,3.6,7.6,5.2c0,5.9-3.9,6.7-7.8,6.7h-1.5V19.3L88.2,19.3z"/>
	<path class="st0" d="M177.1,3.1v15h-22.4V29h20.7v15h-20.7v13.1h22.4v15.3H136V3.1H177.1 M179.1,1.1h-2H136h-2v2v69.2v2h2h41.1h2
		v-2V57.1v-2h-2h-20.4V46h18.7h2v-2V29v-2h-2h-18.7v-6.9h20.4h2v-2v-15V1.1L179.1,1.1z"/>
	<path class="st0" d="M213.2,3.1c11.1,0,19.7,2.8,25.7,8.5c6,5.7,9.1,13.9,9.1,24.6c0,11.6-3.2,20.5-9.5,26.7
		c-6.4,6.3-15.3,9.4-26.8,9.4h-22.4V3.1H213.2 M207.9,57h4.2c5.7,0,9.9-1.6,12.5-4.9c2.7-3.3,4-8.3,4-15.1c0-6.3-1.3-11.1-3.8-14.1
		c-2.5-3.1-6.3-4.6-11.4-4.6h-5.4V57 M213.2,1.1h-24h-2v2v69.2v2h2h22.4c12,0,21.5-3.3,28.2-10c6.7-6.6,10.1-16.1,10.1-28.1
		c0-11.3-3.3-20-9.7-26.1C233.9,4.1,224.8,1.1,213.2,1.1L213.2,1.1z M209.9,20.2h3.4c4.5,0,7.8,1.3,9.9,3.9c2.2,2.7,3.3,7,3.3,12.8
		c0,6.3-1.2,11-3.5,13.9c-2.3,2.8-5.9,4.2-10.9,4.2h-2.2V20.2L209.9,20.2z"/>
	<path class="st0" d="M291.6,2c11,0,19.4,3,25.1,9c5.7,6,8.5,14.9,8.5,26.6c0,11.7-2.9,20.5-8.6,26.6s-14.1,9.1-25.1,9.1
		c-10.9,0-19.2-3-25-9.1c-5.8-6.1-8.7-15-8.7-26.6c0-11.5,2.9-20.3,8.6-26.4C272.3,5,280.6,2,291.6,2 M291.5,57.7
		c4.7,0,8.2-1.6,10.5-4.9c2.3-3.3,3.4-8.3,3.4-15.2c0-6.9-1.2-12-3.5-15.3c-2.3-3.3-5.8-4.9-10.4-4.9c-9.4,0-14.1,6.8-14.1,20.3
		C277.6,51,282.2,57.7,291.5,57.7 M291.6,0c-11.5,0-20.4,3.3-26.6,9.7c-6.1,6.4-9.2,15.8-9.2,27.8c0,12.1,3.1,21.5,9.2,28
		c6.2,6.5,15.1,9.8,26.4,9.8c11.5,0,20.5-3.3,26.6-9.7c6.1-6.4,9.1-15.8,9.1-27.9c0-12.2-3.1-21.6-9.1-27.9
		C312.1,3.3,303.2,0,291.6,0L291.6,0z M291.5,55.7c-10.7,0-12-10.3-12-18.1c0-18.3,9.1-18.3,12.1-18.3c4,0,6.8,1.3,8.8,4.1
		c2.1,2.9,3.1,7.7,3.1,14.2c0,6.4-1,11.2-3.1,14.1C298.5,54.4,295.6,55.7,291.5,55.7L291.5,55.7z"/>
</g>
</svg>
