<?xml version="1.0" encoding="utf-8"?>
<!-- Generator: Adobe Illustrator 24.0.1, SVG Export Plug-In . SVG Version: 6.00 Build 0)  -->
<svg version="1.1" id="レイヤー_1" xmlns="http://www.w3.org/2000/svg" xmlns:xlink="http://www.w3.org/1999/xlink" x="0px"
	 y="0px" viewBox="0 0 75.3 327.2" style="enable-background:new 0 0 75.3 327.2;" xml:space="preserve">
<style type="text/css">
	.st0{fill:#252729;}
</style>
<g>
	<path class="st0" d="M73.2,35.6c0,7.5-1.6,14.6-4.9,21.5l-14.7-5.7c1.2-2.6,2.2-5.1,3-7.7c0.8-2.6,1.2-5.3,1.2-8.2
		c0-4.5-1.8-7.9-5.5-10.4c-3.6-2.5-8.7-3.7-15.1-3.7c-13.3,0-20,5.1-20,15.2c0,3.1,0.4,6,1.3,8.9c0.9,2.9,1.9,5.8,3.1,8.7H5.8
		C3.3,48.2,2,41.7,2,34.4c0-10.5,3-18.5,9.1-24S25.9,2,37.4,2c7.2,0,13.5,1.3,18.9,4c5.4,2.7,9.6,6.6,12.5,11.7
		C71.7,22.8,73.2,28.7,73.2,35.6 M75.2,35.6c0-7.2-1.6-13.5-4.6-18.9c-3.1-5.4-7.6-9.6-13.4-12.4C51.5,1.4,44.8,0,37.4,0
		C25.5,0,16.2,3,9.7,8.9C3.3,14.8,0,23.4,0,34.4c0,7.5,1.3,14.4,4,20.4L4.5,56h1.3h15.8h3l-1.1-2.8c-1.2-2.8-2.2-5.7-3-8.5
		c-0.8-2.7-1.2-5.5-1.2-8.3c0-11.8,10.3-13.2,18-13.2c6,0,10.7,1.1,14,3.4c3.1,2.1,4.6,5,4.6,8.8c0,2.7-0.4,5.3-1.1,7.6
		c-0.8,2.5-1.8,5-2.9,7.4l-0.9,1.9l2,0.8l14.7,5.7l1.7,0.7l0.8-1.7C73.5,50.8,75.2,43.3,75.2,35.6L75.2,35.6z"/>
	<path class="st0" d="M72.2,90.2c0,18.8-6.8,28.2-20.5,28.2c-8,0-14.2-3.9-18.6-11.7L2.9,126.9v-21.2l25.2-14.7v-4.7H2.9V67.5h69.2
		V90.2 M42.2,86.2v3.5c0,6.5,2.9,9.8,8.7,9.8c4.8,0,7.2-3.2,7.2-9.6v-3.7H42.2 M74.2,90.2V67.5v-2h-2H2.9h-2v2v18.7v2h2h23.2v1.6
		L1.9,103.9l-1,0.6v1.1v21.2v3.7l3.1-2.1l28.4-19c4.7,7.2,11.1,10.9,19.2,10.9c7.5,0,13.2-2.7,17-7.9C72.3,107.5,74.2,100,74.2,90.2
		L74.2,90.2z M56,88.2v1.7c0,7.6-3.6,7.6-5.2,7.6c-5.9,0-6.7-3.9-6.7-7.8v-1.5H56L56,88.2z"/>
	<path class="st0" d="M72.2,177.1h-15v-22.4H46.3v20.7h-15v-20.7H18.2v22.4H2.9V136h69.2V177.1 M74.2,179.1v-2V136v-2h-2H2.9h-2v2
		v41.1v2h2h15.3h2v-2v-20.4h9.1v18.7v2h2h15h2v-2v-18.7h6.9v20.4v2h2h15H74.2L74.2,179.1z"/>
	<path class="st0" d="M72.2,213.2c0,11.1-2.8,19.7-8.5,25.7C58,245,49.8,248,39,248c-11.6,0-20.5-3.2-26.7-9.5
		c-6.3-6.4-9.4-15.3-9.4-26.8v-22.4h69.2V213.2 M18.3,207.9v4.2c0,5.7,1.6,9.9,4.9,12.5c3.3,2.7,8.3,4,15.1,4
		c6.3,0,11.1-1.3,14.1-3.8c3.1-2.5,4.6-6.3,4.6-11.4v-5.4H18.3 M74.2,213.2v-24v-2h-2H2.9h-2v2v22.4c0,12,3.3,21.5,10,28.2
		C17.5,246.6,27,250,39,250c11.3,0,20-3.3,26.1-9.7C71.1,233.9,74.2,224.8,74.2,213.2L74.2,213.2z M55.1,209.9v3.4
		c0,4.5-1.3,7.8-3.9,9.9c-2.7,2.2-7,3.3-12.8,3.3c-6.3,0-11-1.2-13.9-3.5c-2.8-2.3-4.2-5.9-4.2-10.9v-2.2H55.1L55.1,209.9z"/>
	<path class="st0" d="M73.3,291.6c0,11-3,19.4-9,25.1c-6,5.7-14.9,8.5-26.6,8.5c-11.7,0-20.5-2.9-26.6-8.6S2,302.5,2,291.5
		c0-10.9,3-19.2,9.1-25c6.1-5.8,15-8.7,26.6-8.7c11.5,0,20.3,2.9,26.4,8.6C70.2,272.3,73.3,280.6,73.3,291.6 M17.6,291.5
		c0,4.7,1.6,8.2,4.9,10.5c3.3,2.3,8.3,3.4,15.2,3.4c6.9,0,12-1.2,15.3-3.5c3.3-2.3,4.9-5.8,4.9-10.4c0-9.4-6.8-14.1-20.3-14.1
		C24.3,277.6,17.6,282.2,17.6,291.5 M75.3,291.6c0-11.5-3.3-20.4-9.7-26.6c-6.4-6.1-15.8-9.2-27.8-9.2c-12.1,0-21.5,3.1-28,9.2
		C3.3,271.3,0,280.1,0,291.5c0,11.5,3.3,20.5,9.7,26.6c6.4,6.1,15.8,9.1,27.9,9.1c12.2,0,21.6-3.1,27.9-9.1
		C72,312.1,75.3,303.2,75.3,291.6L75.3,291.6z M19.6,291.5c0-10.7,10.3-12,18.1-12c18.3,0,18.3,9.1,18.3,12.1c0,4-1.3,6.8-4.1,8.8
		c-2.9,2.1-7.7,3.1-14.2,3.1c-6.4,0-11.2-1-14.1-3.1C20.9,298.5,19.6,295.6,19.6,291.5L19.6,291.5z"/>
</g>
</svg>
