<?xml version="1.0" encoding="utf-8"?>
<!-- Generator: Adobe Illustrator 24.0.1, SVG Export Plug-In . SVG Version: 6.00 Build 0)  -->
<svg version="1.1" id="レイヤー_1" xmlns="http://www.w3.org/2000/svg" xmlns:xlink="http://www.w3.org/1999/xlink" x="0px"
	 y="0px" viewBox="0 0 75.2 480.6" style="enable-background:new 0 0 75.2 480.6;" xml:space="preserve">
<style type="text/css">
	.st0{fill:#252729;}
</style>
<g>
	<path class="st0" d="M72.2,80.9H2.9V63.7h30.4c1.6,0,3.3,0,5.3,0.1c1.9,0,6.6,0.3,14.2,0.6V64L2.9,50V32.2L52.8,18v-0.4
		c-8.5,0.7-15.1,1-19.8,1H2.9V2h69.2v24.9L23,41.4v0.4l49.2,14.2V80.9 M74.2,82.9v-2v-25v-1.5L72.7,54L29.5,41.5l43.2-12.7l1.4-0.4
		v-1.5V2V0h-2H2.9h-2v2v16.6v2h2H33c1.1,0,2.3,0,3.6-0.1L2.4,30.2l-1.5,0.4v1.5V50v1.5l1.5,0.4l34.9,9.8c-1.4,0-2.8,0-4,0H2.9h-2v2
		v17.2v2h2h69.2H74.2L74.2,82.9z"/>
	<path class="st0" d="M72.2,136.9h-15v-22.4H46.3v20.7h-15v-20.7H18.2v22.4H2.9V95.8h69.2V136.9 M74.2,138.9v-2V95.8v-2h-2H2.9h-2v2
		v41.1v2h2h15.3h2v-2v-20.4h9.1v18.7v2h2h15h2v-2v-18.7h6.9v20.4v2h2h15H74.2L74.2,138.9z"/>
	<path class="st0" d="M72.2,227.9H2.9v-17.2h30.4c1.6,0,3.3,0,5.3,0.1c1.9,0,6.6,0.3,14.2,0.6V211L2.9,197v-17.8L52.8,165v-0.4
		c-8.5,0.7-15.1,1-19.8,1H2.9V149h69.2v24.9L23,188.4v0.4l49.2,14.2V227.9 M74.2,229.9v-2v-25v-1.5l-1.4-0.4l-43.2-12.4l43.2-12.7
		l1.4-0.4v-1.5V149v-2h-2H2.9h-2v2v16.6v2h2H33c1.1,0,2.3,0,3.6-0.1l-34.2,9.7l-1.5,0.4v1.5V197v1.5l1.5,0.4l34.9,9.8
		c-1.4,0-2.8,0-4,0H2.9h-2v2v17.2v2h2h69.2H74.2L74.2,229.9z"/>
	<path class="st0" d="M72.2,267c0,9.4-1.4,16.4-4.2,21c-2.8,4.6-7.1,6.8-13,6.8c-3.9,0-7.2-1-9.9-3s-4.5-4.6-5.3-7.9h-0.5
		c-1.1,4.3-3,7.4-5.7,9.3c-2.7,1.9-6.1,2.9-10.3,2.9c-6.3,0-11.2-2.4-14.8-7.1s-5.4-11.2-5.4-19.3v-27h69.2V267 M45.6,261.5v5.6
		c0,2.7,0.6,4.8,1.7,6.2c1.1,1.5,2.7,2.2,4.9,2.2c3.9,0,5.8-2.9,5.8-8.8v-5.3H45.6 M17.4,261.5v6.6c0,5.8,2.5,8.8,7.4,8.8
		c2.3,0,4.1-0.8,5.3-2.3c1.2-1.6,1.8-3.8,1.8-6.8v-6.2H17.4 M74.2,267v-24.2v-2h-2H2.9h-2v2v27c0,8.6,2,15.5,5.8,20.5
		c4,5.2,9.5,7.9,16.4,7.9c4.6,0,8.5-1.1,11.5-3.3c2-1.4,3.6-3.5,4.9-6c1.1,1.8,2.5,3.3,4.3,4.6c3.1,2.2,6.8,3.4,11.1,3.4
		c6.6,0,11.6-2.6,14.8-7.8C72.7,284,74.2,276.8,74.2,267L74.2,267z M56,263.5v3.3c0,6.8-2.7,6.8-3.8,6.8c-2,0-2.9-0.8-3.3-1.4
		c-0.8-1.1-1.3-2.8-1.3-5v-3.6H56L56,263.5z M29.9,263.5v4.2c0,2.5-0.5,4.4-1.4,5.6c-0.9,1.1-2,1.6-3.7,1.6c-2.7,0-5.4-0.8-5.4-6.8
		v-4.6H29.9L29.9,263.5z"/>
	<path class="st0" d="M72.2,349.3h-15v-22.4H46.3v20.7h-15v-20.7H18.2v22.4H2.9v-41.1h69.2V349.3 M74.2,351.3v-2v-41.1v-2h-2H2.9h-2
		v2v41.1v2h2h15.3h2v-2v-20.4h9.1v18.7v2h2h15h2v-2v-18.7h6.9v20.4v2h2h15H74.2L74.2,351.3z"/>
	<path class="st0" d="M72.2,384.1c0,18.8-6.8,28.2-20.5,28.2c-8,0-14.2-3.9-18.6-11.7L2.9,420.7v-21.2l25.2-14.7v-4.7H2.9v-18.7
		h69.2V384.1 M42.2,380.1v3.5c0,6.5,2.9,9.8,8.7,9.8c4.8,0,7.2-3.2,7.2-9.6v-3.7H42.2 M74.2,384.1v-22.7v-2h-2H2.9h-2v2v18.7v2h2
		h23.2v1.6L1.9,397.8l-1,0.6v1.1v21.2v3.7l3.1-2.1l28.4-19c4.7,7.2,11.1,10.9,19.2,10.9c7.5,0,13.2-2.7,17-7.9
		C72.3,401.4,74.2,393.9,74.2,384.1L74.2,384.1z M56,382.1v1.7c0,7.6-3.6,7.6-5.2,7.6c-5.9,0-6.7-3.9-6.7-7.8v-1.5H56L56,382.1z"/>
	<path class="st0" d="M73.2,456.1c0,7.2-1.7,14.5-5,21.9l-14.4-5.7c3-6.5,4.5-12.1,4.5-16.8c0-2.4-0.4-4.2-1.3-5.3
		c-0.9-1.1-1.9-1.7-3.2-1.7c-1.4,0-2.6,0.7-3.6,2.1s-3,5.2-5.9,11.4c-2.7,6-5.6,10.1-8.6,12.4c-3.1,2.3-7,3.5-11.6,3.5
		c-4.3,0-8.1-1.1-11.4-3.3c-3.3-2.2-5.9-5.3-7.8-9.4c-1.8-4.1-2.8-8.9-2.8-14.4c0-4.6,0.3-8.5,1-11.6c0.6-3.1,1.8-6.4,3.4-9.8H23
		c-1.8,3.6-3.3,7.3-4.3,11.1c-1,3.9-1.5,7.4-1.5,10.6c0,2.8,0.5,4.8,1.4,6.1c1,1.3,2.2,1.9,3.7,1.9c0.9,0,1.8-0.3,2.5-0.8
		c0.7-0.5,1.4-1.4,2.2-2.5c0.7-1.2,2.2-4.2,4.5-9.2c2.1-4.5,4-7.9,6-10.2s4.1-3.9,6.6-5c2.5-1.1,5.4-1.6,8.9-1.6
		c6.4,0,11.4,2.3,14.9,7C71.4,441.6,73.2,447.9,73.2,456.1 M75.2,456.1c0-8.5-1.9-15.4-5.8-20.4c-3.9-5.1-9.5-7.7-16.5-7.7
		c-3.7,0-6.9,0.6-9.7,1.8c-2.8,1.2-5.2,3.1-7.4,5.6c-2.1,2.4-4.1,5.9-6.3,10.6c-2.7,6.1-3.9,8.2-4.3,9c-0.7,1.2-1.3,1.7-1.6,2
		c-0.4,0.3-0.8,0.4-1.3,0.4c-0.9,0-1.5-0.4-2.1-1.1c-0.5-0.6-1-2-1-4.9c0-3,0.5-6.4,1.5-10.1c1-3.7,2.4-7.3,4.1-10.7l1.5-2.9H23H6.4
		H5.1l-0.5,1.1c-1.7,3.5-2.9,6.9-3.5,10.2c-0.7,3.2-1,7.3-1,12c0,5.8,1,10.9,2.9,15.3c2,4.4,4.9,7.9,8.5,10.3
		c3.6,2.4,7.9,3.6,12.5,3.6c5.1,0,9.4-1.3,12.8-3.9c3.4-2.6,6.4-6.9,9.3-13.2c3.4-7.5,5-10.2,5.6-11c1-1.3,1.8-1.3,2.1-1.3
		c0.5,0,1,0.1,1.6,0.9c0.4,0.5,0.9,1.6,0.9,4.1c0,4.4-1.4,9.8-4.3,15.9l-0.9,1.9l2,0.8l14.4,5.7l1.8,0.7l0.8-1.8
		C73.5,471.1,75.2,463.5,75.2,456.1L75.2,456.1z"/>
</g>
</svg>
