<?xml version="1.0" encoding="utf-8"?>
<!-- Generator: Adobe Illustrator 24.0.1, SVG Export Plug-In . SVG Version: 6.00 Build 0)  -->
<svg version="1.1" id="レイヤー_1" xmlns="http://www.w3.org/2000/svg" xmlns:xlink="http://www.w3.org/1999/xlink" x="0px"
	 y="0px" viewBox="0 0 480.6 75.2" style="enable-background:new 0 0 480.6 75.2;" xml:space="preserve">
<style type="text/css">
	.st0{fill:#252729;}
</style>
<g>
	<path class="st0" d="M80.9,3v69.2H63.7V41.9c0-1.6,0-3.3,0.1-5.3c0-1.9,0.3-6.6,0.6-14.2H64L50,72.2H32.2L18,22.4h-0.4
		c0.7,8.5,1,15.1,1,19.8v30.1H2V3h24.9l14.4,49.2h0.4L55.9,3H80.9 M82.9,1h-2h-25h-1.5L54,2.4L41.5,45.7L28.8,2.4L28.4,1h-1.5H2H0v2
		v69.2v2h2h16.6h2v-2V42.2c0-1.1,0-2.3-0.1-3.6l9.7,34.2l0.4,1.5h1.5H50h1.5l0.4-1.5l9.8-34.9c0,1.4,0,2.8,0,4v30.4v2h2h17.2h2v-2V3
		V1L82.9,1z"/>
	<path class="st0" d="M136.9,3v15h-22.4v10.9h20.7v15h-20.7V57h22.4v15.3H95.8V3H136.9 M138.9,1h-2H95.8h-2v2v69.2v2h2h41.1h2v-2V57
		v-2h-2h-20.4v-9.1h18.7h2v-2v-15v-2h-2h-18.7V20h20.4h2v-2V3V1L138.9,1z"/>
	<path class="st0" d="M227.9,3v69.2h-17.2V41.9c0-1.6,0-3.3,0.1-5.3c0-1.9,0.3-6.6,0.6-14.2H211l-14,49.8h-17.8L165,22.4h-0.4
		c0.7,8.5,1,15.1,1,19.8v30.1H149V3h24.9l14.4,49.2h0.4L202.9,3H227.9 M229.9,1h-2h-25h-1.5L201,2.4l-12.4,43.2L175.8,2.4L175.4,1
		h-1.5H149h-2v2v69.2v2h2h16.6h2v-2V42.2c0-1.1,0-2.3-0.1-3.6l9.7,34.2l0.4,1.5h1.5H197h1.5l0.4-1.5l9.8-34.9c0,1.4,0,2.8,0,4v30.4
		v2h2h17.2h2v-2V3V1L229.9,1z"/>
	<path class="st0" d="M267,3c9.4,0,16.4,1.4,21,4.2c4.6,2.8,6.8,7.1,6.8,13c0,3.9-1,7.2-3,9.9s-4.6,4.5-7.9,5.3V36
		c4.3,1.1,7.4,3,9.3,5.7c1.9,2.7,2.9,6.1,2.9,10.3c0,6.3-2.4,11.2-7.1,14.8s-11.2,5.4-19.3,5.4h-27V3H267 M261.5,29.6h5.6
		c2.7,0,4.8-0.6,6.2-1.7c1.5-1.1,2.2-2.7,2.2-4.9c0-3.9-2.9-5.8-8.8-5.8h-5.3V29.6 M261.5,57.8h6.6c5.8,0,8.8-2.5,8.8-7.4
		c0-2.3-0.8-4.1-2.3-5.3c-1.6-1.2-3.8-1.8-6.8-1.8h-6.2V57.8 M267,1h-24.2h-2v2v69.2v2h2h27c8.6,0,15.5-2,20.5-5.8
		c5.2-4,7.9-9.5,7.9-16.4c0-4.6-1.1-8.5-3.3-11.5c-1.4-2-3.5-3.6-6-4.9c1.8-1.1,3.3-2.5,4.6-4.3c2.2-3.1,3.4-6.8,3.4-11.1
		c0-6.6-2.6-11.6-7.8-14.8C284,2.5,276.8,1,267,1L267,1z M263.5,19.2h3.3c6.8,0,6.8,2.7,6.8,3.8c0,2-0.8,2.9-1.4,3.3
		c-1.1,0.8-2.8,1.3-5,1.3h-3.6V19.2L263.5,19.2z M263.5,45.3h4.2c2.5,0,4.4,0.5,5.6,1.4c1.1,0.9,1.6,2,1.6,3.7
		c0,2.7-0.8,5.4-6.8,5.4h-4.6V45.3L263.5,45.3z"/>
	<path class="st0" d="M349.3,3v15h-22.4v10.9h20.7v15h-20.7V57h22.4v15.3h-41.1V3H349.3 M351.3,1h-2h-41.1h-2v2v69.2v2h2h41.1h2v-2
		V57v-2h-2h-20.4v-9.1h18.7h2v-2v-15v-2h-2h-18.7V20h20.4h2v-2V3V1L351.3,1z"/>
	<path class="st0" d="M384.1,3c18.8,0,28.2,6.8,28.2,20.5c0,8-3.9,14.2-11.7,18.6l20.2,30.2h-21.2L384.8,47h-4.7v25.2h-18.7V3H384.1
		 M380.1,33h3.5c6.5,0,9.8-2.9,9.8-8.7c0-4.8-3.2-7.2-9.6-7.2h-3.7V33 M384.1,1h-22.7h-2v2v69.2v2h2h18.7h2v-2V49h1.6l14.1,24.2
		l0.6,1h1.1h21.2h3.7l-2.1-3.1l-19-28.4c7.2-4.7,10.9-11.1,10.9-19.2c0-7.5-2.7-13.2-7.9-17C401.4,2.8,393.9,1,384.1,1L384.1,1z
		 M382.1,19.2h1.7c7.6,0,7.6,3.6,7.6,5.2c0,5.9-3.9,6.7-7.8,6.7h-1.5V19.2L382.1,19.2z"/>
	<path class="st0" d="M456.1,2c7.2,0,14.5,1.7,21.9,5l-5.7,14.4c-6.5-3-12.1-4.5-16.8-4.5c-2.4,0-4.2,0.4-5.3,1.3
		c-1.1,0.9-1.7,1.9-1.7,3.2c0,1.4,0.7,2.6,2.1,3.6s5.2,3,11.4,5.9c6,2.7,10.1,5.6,12.4,8.6c2.3,3.1,3.5,7,3.5,11.6
		c0,4.3-1.1,8.1-3.3,11.4c-2.2,3.3-5.3,5.9-9.4,7.8c-4.1,1.8-8.9,2.8-14.4,2.8c-4.6,0-8.5-0.3-11.6-1c-3.1-0.6-6.4-1.8-9.8-3.4V52.2
		c3.6,1.8,7.3,3.3,11.1,4.3c3.9,1,7.4,1.5,10.6,1.5c2.8,0,4.8-0.5,6.1-1.4c1.3-1,1.9-2.2,1.9-3.7c0-0.9-0.3-1.8-0.8-2.5
		c-0.5-0.7-1.4-1.4-2.5-2.2c-1.2-0.7-4.2-2.2-9.2-4.5c-4.5-2.1-7.9-4-10.2-6s-3.9-4.1-5-6.6c-1.1-2.5-1.6-5.4-1.6-8.9
		c0-6.4,2.3-11.4,7-14.9C441.6,3.8,447.9,2,456.1,2 M456.1,0c-8.5,0-15.4,1.9-20.4,5.8c-5.1,3.9-7.7,9.5-7.7,16.5
		c0,3.7,0.6,6.9,1.8,9.7c1.2,2.8,3.1,5.2,5.6,7.4c2.4,2.1,5.9,4.1,10.6,6.3c6.1,2.7,8.2,3.9,9,4.3c1.2,0.7,1.7,1.3,2,1.6
		c0.3,0.4,0.4,0.8,0.4,1.3c0,0.9-0.4,1.5-1.1,2.1c-0.6,0.5-2,1-4.9,1c-3,0-6.4-0.5-10.1-1.5c-3.7-1-7.3-2.4-10.7-4.1l-2.9-1.5v3.3
		v16.7v1.3l1.1,0.5c3.5,1.7,6.9,2.9,10.2,3.5c3.2,0.7,7.3,1,12,1c5.8,0,10.9-1,15.3-2.9c4.4-2,7.9-4.9,10.3-8.5
		c2.4-3.6,3.6-7.9,3.6-12.5c0-5.1-1.3-9.4-3.9-12.8c-2.6-3.4-6.9-6.4-13.2-9.3c-7.5-3.4-10.2-5-11-5.6c-1.3-1-1.3-1.8-1.3-2.1
		c0-0.5,0.1-1,0.9-1.6c0.5-0.4,1.6-0.9,4.1-0.9c4.4,0,9.8,1.4,15.9,4.3l1.9,0.9l0.8-2l5.7-14.4l0.7-1.8l-1.8-0.8
		C471.1,1.7,463.5,0,456.1,0L456.1,0z"/>
</g>
</svg>
