<?xml version="1.0" encoding="utf-8"?>
<!-- Generator: Adobe Illustrator 24.0.1, SVG Export Plug-In . SVG Version: 6.00 Build 0)  -->
<svg version="1.1" id="レイヤー_1" xmlns="http://www.w3.org/2000/svg" xmlns:xlink="http://www.w3.org/1999/xlink" x="0px"
	 y="0px" viewBox="0 0 378.9 75.2" style="enable-background:new 0 0 378.9 75.2;" xml:space="preserve">
<style type="text/css">
	.st0{fill:#252729;}
</style>
<g>
	<path class="st0" d="M70.1,3L47.4,72.2h-22L2.8,3h21l9.4,35.1c2,7.8,3,13.2,3.2,16.3c0.2-2.2,0.7-5,1.3-8.3
		c0.7-3.3,1.2-5.9,1.8-7.8L49.1,3H70.1 M72.8,1h-2.8H49.1h-1.5l-0.4,1.5l-9.6,35.3c-0.4,1.3-0.8,3-1.2,5c-0.4-1.6-0.8-3.3-1.2-5.2
		L25.7,2.5L25.3,1h-1.5h-21H0l0.9,2.6l22.6,69.2l0.5,1.4h1.5h22h1.4l0.5-1.4L72,3.6L72.8,1L72.8,1z"/>
	<path class="st0" d="M117.6,2.7l22.9,69.5H120l-3.4-13H94.1l-3.5,13H70.1L92.7,2.7H117.6 M98,43.9h14.7l-3-11.4
		c-0.7-2.5-1.5-5.8-2.5-9.8c-1-4-1.7-6.9-2-8.6c-0.3,1.6-0.8,4.3-1.7,8C102.7,25.8,100.9,33.1,98,43.9 M119.1,0.7h-1.4h-25h-1.5
		l-0.4,1.4L68.2,71.6l-0.9,2.6h2.8h20.6h1.5l0.4-1.5l3.1-11.5h19.4l3,11.5l0.4,1.5h1.5h20.5h2.8l-0.9-2.6L119.5,2.1L119.1,0.7
		L119.1,0.7z M100.6,41.9c2.3-8.7,3.9-14.9,4.7-18.5c1,4,1.8,7.2,2.5,9.7l2.3,8.8H100.6L100.6,41.9z"/>
	<path class="st0" d="M166.7,3v54.1h26.7v15.1H148V3H166.7 M168.7,1h-2H148h-2v2v69.2v2h2h45.4h2v-2V57.1v-2h-2h-24.7V3V1L168.7,1z"
		/>
	<path class="st0" d="M263.3,3v41.7c0,9.1-2.6,16.1-7.7,21.1c-5.1,5-12.5,7.5-22.2,7.5c-9.4,0-16.7-2.4-21.8-7.2
		c-5.1-4.8-7.6-11.8-7.6-20.8V3h18.8v40.6c0,4.9,0.9,8.4,2.7,10.7s4.5,3.3,8.1,3.3c3.8,0,6.6-1.1,8.3-3.3c1.7-2.2,2.6-5.8,2.6-10.8
		V3H263.3 M265.3,1h-2h-18.7h-2v2v40.5c0,4.5-0.7,7.7-2.2,9.5c-1.3,1.7-3.5,2.5-6.7,2.5c-3,0-5.1-0.8-6.6-2.6
		c-1.5-1.8-2.3-5-2.3-9.4V3V1h-2h-18.8h-2v2v42.1c0,9.6,2.8,17.1,8.2,22.3c5.4,5.2,13.2,7.8,23.1,7.8c10.2,0,18.1-2.7,23.6-8
		c5.5-5.3,8.3-12.9,8.3-22.5V3V1L265.3,1z"/>
	<path class="st0" d="M319,3v15h-22.4v10.9h20.7v15h-20.7V57H319v15.3h-41.1V3H319 M321,1h-2h-41.1h-2v2v69.2v2h2H319h2v-2V57v-2h-2
		h-20.4v-9.1h18.7h2v-2v-15v-2h-2h-18.7V20H319h2v-2V3V1L321,1z"/>
	<path class="st0" d="M354.4,2c7.2,0,14.5,1.7,21.9,5l-5.7,14.4c-6.5-3-12.1-4.5-16.8-4.5c-2.4,0-4.2,0.4-5.3,1.3
		c-1.1,0.9-1.7,1.9-1.7,3.2c0,1.4,0.7,2.6,2.1,3.6c1.4,1.1,5.2,3,11.4,5.9c6,2.7,10.1,5.6,12.4,8.6c2.3,3.1,3.5,7,3.5,11.6
		c0,4.3-1.1,8.1-3.3,11.4c-2.2,3.3-5.3,5.9-9.4,7.8c-4.1,1.8-8.9,2.8-14.4,2.8c-4.6,0-8.5-0.3-11.6-1s-6.4-1.8-9.8-3.4V52.2
		c3.6,1.8,7.3,3.3,11.1,4.3c3.9,1,7.4,1.5,10.6,1.5c2.8,0,4.8-0.5,6.1-1.4c1.3-1,1.9-2.2,1.9-3.7c0-0.9-0.3-1.8-0.8-2.5
		c-0.5-0.7-1.4-1.4-2.5-2.2c-1.2-0.7-4.2-2.2-9.2-4.5c-4.5-2.1-7.9-4-10.2-6c-2.3-1.9-3.9-4.1-5-6.6c-1.1-2.5-1.6-5.4-1.6-8.9
		c0-6.4,2.3-11.4,7-14.9C339.9,3.8,346.3,2,354.4,2 M354.4,0c-8.5,0-15.4,1.9-20.4,5.8c-5.1,3.9-7.7,9.5-7.7,16.5
		c0,3.7,0.6,6.9,1.8,9.7c1.2,2.8,3.1,5.2,5.6,7.4c2.4,2.1,5.9,4.1,10.6,6.3c6.1,2.7,8.2,3.9,9,4.3c1.2,0.7,1.7,1.3,2,1.6
		c0.3,0.4,0.4,0.8,0.4,1.3c0,0.9-0.4,1.5-1.1,2.1c-0.6,0.5-2,1.1-4.9,1.1c-3,0-6.4-0.5-10.1-1.5c-3.7-1-7.3-2.4-10.7-4.1l-2.9-1.5
		v3.3v16.7v1.3l1.1,0.5c3.5,1.7,6.9,2.9,10.2,3.5c3.2,0.7,7.3,1,12,1c5.8,0,10.9-1,15.3-2.9c4.4-2,7.9-4.9,10.3-8.5
		c2.4-3.6,3.6-7.9,3.6-12.5c0-5.1-1.3-9.4-3.9-12.8c-2.5-3.4-6.9-6.4-13.2-9.3c-7.5-3.4-10.2-5-11-5.6c-1.3-1-1.3-1.8-1.3-2.1
		c0-0.5,0.1-1,0.9-1.6c0.5-0.4,1.6-0.9,4.1-0.9c4.4,0,9.8,1.4,15.9,4.3l1.9,0.9l0.8-2l5.7-14.4l0.7-1.8l-1.8-0.8
		C369.5,1.7,361.8,0,354.4,0L354.4,0z"/>
</g>
</svg>
