<?xml version="1.0" encoding="utf-8"?>
<!-- Generator: Adobe Illustrator 24.0.1, SVG Export Plug-In . SVG Version: 6.00 Build 0)  -->
<svg version="1.1" id="レイヤー_1" xmlns="http://www.w3.org/2000/svg" xmlns:xlink="http://www.w3.org/1999/xlink" x="0px"
	 y="0px" viewBox="0 0 75.2 378.9" style="enable-background:new 0 0 75.2 378.9;" xml:space="preserve">
<style type="text/css">
	.st0{fill:#252729;}
</style>
<g>
	<path class="st0" d="M72.2,70.1L2.9,47.4v-22L72.2,2.8v21l-35.1,9.4c-7.8,2-13.2,3-16.3,3.2c2.2,0.2,5,0.7,8.3,1.3
		c3.3,0.7,5.9,1.2,7.8,1.8l35.3,9.6V70.1 M74.2,72.8v-2.8V49.1v-1.5l-1.5-0.4l-35.3-9.6c-1.3-0.4-3-0.8-5-1.2
		c1.6-0.4,3.3-0.8,5.2-1.2l35.1-9.4l1.5-0.4v-1.5v-21V0l-2.6,0.9L2.3,23.4l-1.4,0.5v1.5v22v1.4l1.4,0.5L71.6,72L74.2,72.8L74.2,72.8
		z"/>
	<path class="st0" d="M72.5,117.6L2.9,140.5V120l13-3.4V94.1l-13-3.5V70.1l69.5,22.6V117.6 M31.3,98v14.7l11.4-3
		c2.5-0.7,5.8-1.5,9.8-2.5c4-1,6.9-1.7,8.6-2c-1.6-0.3-4.3-0.8-8-1.7C49.4,102.7,42.1,100.9,31.3,98 M74.5,119.1v-1.4v-25v-1.5
		l-1.4-0.4L3.6,68.2l-2.6-0.9v2.8v20.6v1.5l1.5,0.4l11.5,3.1v19.4l-11.5,3l-1.5,0.4v1.5v20.5v2.8l2.6-0.9l69.5-22.9L74.5,119.1
		L74.5,119.1z M33.3,100.6c8.7,2.3,14.9,3.9,18.5,4.7c-4,1-7.2,1.8-9.7,2.5l-8.8,2.3V100.6L33.3,100.6z"/>
	<path class="st0" d="M72.2,166.7H18.1v26.7H2.9V148h69.2V166.7 M74.2,168.7v-2V148v-2h-2H2.9h-2v2v45.4v2h2h15.1h2v-2v-24.7h52.1
		H74.2L74.2,168.7z"/>
	<path class="st0" d="M72.2,263.3H30.5c-9.1,0-16.1-2.6-21.1-7.7c-5-5.1-7.5-12.5-7.5-22.2c0-9.4,2.4-16.7,7.2-21.8
		c4.8-5.1,11.8-7.6,20.8-7.6h42.1v18.8H31.6c-4.9,0-8.4,0.9-10.7,2.7s-3.3,4.5-3.3,8.1c0,3.8,1.1,6.6,3.3,8.3
		c2.2,1.7,5.8,2.6,10.8,2.6h40.5V263.3 M74.2,265.3v-2v-18.7v-2h-2H31.6c-4.5,0-7.7-0.7-9.5-2.2c-1.7-1.3-2.5-3.5-2.5-6.7
		c0-3,0.8-5.1,2.6-6.6c1.8-1.5,5-2.3,9.4-2.3h40.6h2v-2v-18.8v-2h-2H30.1c-9.6,0-17.1,2.8-22.3,8.2C2.6,215.7,0,223.5,0,233.4
		c0,10.2,2.7,18.1,8,23.6c5.3,5.5,12.9,8.3,22.5,8.3h41.7H74.2L74.2,265.3z"/>
	<path class="st0" d="M72.2,319h-15v-22.4H46.3v20.7h-15v-20.7H18.2V319H2.9v-41.1h69.2V319 M74.2,321v-2v-41.1v-2h-2H2.9h-2v2V319
		v2h2h15.3h2v-2v-20.4h9.1v18.7v2h2h15h2v-2v-18.7h6.9V319v2h2h15H74.2L74.2,321z"/>
	<path class="st0" d="M73.2,354.4c0,7.2-1.7,14.5-5,21.9l-14.4-5.7c3-6.5,4.5-12.1,4.5-16.8c0-2.4-0.4-4.2-1.3-5.3
		c-0.9-1.1-1.9-1.7-3.2-1.7c-1.4,0-2.6,0.7-3.6,2.1c-1.1,1.4-3,5.2-5.9,11.4c-2.7,6-5.6,10.1-8.6,12.4c-3.1,2.3-7,3.5-11.6,3.5
		c-4.3,0-8.1-1.1-11.4-3.3c-3.3-2.2-5.9-5.3-7.8-9.4c-1.8-4.1-2.8-8.9-2.8-14.4c0-4.6,0.3-8.5,1-11.6c0.6-3.1,1.8-6.4,3.4-9.8H23
		c-1.8,3.6-3.3,7.3-4.3,11.1c-1,3.9-1.5,7.4-1.5,10.6c0,2.8,0.5,4.8,1.4,6.1c1,1.3,2.2,1.9,3.7,1.9c0.9,0,1.8-0.3,2.5-0.8
		c0.7-0.5,1.4-1.4,2.2-2.5c0.7-1.2,2.2-4.2,4.5-9.2c2.1-4.5,4-7.9,6-10.2c1.9-2.3,4.1-3.9,6.6-5c2.5-1.1,5.4-1.6,8.9-1.6
		c6.4,0,11.4,2.3,14.9,7C71.4,339.9,73.2,346.3,73.2,354.4 M75.2,354.4c0-8.5-1.9-15.4-5.8-20.4c-3.9-5.1-9.5-7.7-16.5-7.7
		c-3.7,0-6.9,0.6-9.7,1.8c-2.8,1.2-5.2,3.1-7.4,5.6c-2.1,2.4-4.1,5.9-6.3,10.6c-2.7,6.1-3.9,8.2-4.3,9c-0.7,1.2-1.3,1.7-1.6,2
		c-0.4,0.3-0.8,0.4-1.3,0.4c-0.9,0-1.5-0.4-2.1-1.1c-0.5-0.6-1.1-2-1.1-4.9c0-3,0.5-6.4,1.5-10.1c1-3.7,2.4-7.3,4.1-10.7l1.5-2.9H23
		H6.4H5.1L4.6,327c-1.7,3.5-2.9,6.9-3.5,10.2c-0.7,3.2-1,7.3-1,12c0,5.8,1,10.9,2.9,15.3c2,4.4,4.9,7.9,8.5,10.3
		c3.6,2.4,7.9,3.6,12.5,3.6c5.1,0,9.4-1.3,12.8-3.9c3.4-2.5,6.4-6.9,9.3-13.2c3.4-7.5,5-10.2,5.6-11c1-1.3,1.8-1.3,2.1-1.3
		c0.5,0,1,0.1,1.6,0.9c0.4,0.5,0.9,1.6,0.9,4.1c0,4.4-1.4,9.8-4.3,15.9l-0.9,1.9l2,0.8l14.4,5.7l1.8,0.7l0.8-1.8
		C73.5,369.5,75.2,361.8,75.2,354.4L75.2,354.4z"/>
</g>
</svg>
