<svg id="レイヤー_1" data-name="レイヤー 1" xmlns="http://www.w3.org/2000/svg" viewBox="0 0 1698.64 138.91"><defs><style>.cls-1{fill:#252729;}.cls-2{fill:#fff;}</style></defs><title>logo-careers</title><path class="cls-1" d="M143.37,91.32H99.79L87,138.91H37.73L50.51,91.32H0L10.78,51.13H154.15ZM13.55,40.19,24.33,0H167.71L156.93,40.19Z"/><path class="cls-1" d="M145.84,138.91l8.32-31.11h74.53l14.17-52.36h38.19l-22.48,83.47Zm23.8-89h29.88L186.19,99.79H156.31Zm67.14,0L223.46,99.79H193.58L206.91,50Z"/><path class="cls-1" d="M369.76,138.91l21.56-84.55H345.89l-14.32,53.75H282.29L311.08.31h49.28l-3.69,13.86h94.25L419,138.91Z"/><path class="cls-1" d="M538.85,100.25H493l-2.15,7.86H441.53L470.32.31H519.6l-3.69,13.86h94.25L578.28,138.91H529ZM501.59,68.06h45.58l3.39-13.53H505.13Z"/><path class="cls-1" d="M887.05,51.13,876.27,91.32H832.53l-12.62,47.59H770.63l12.62-47.59H732.9l10.78-40.19h50.2l2.93-10.94H746.45L757.23,0H900.6L889.82,40.19H846.09l-2.93,10.94Z"/><path class="cls-1" d="M592.22,138.91l8.32-31.11h74.53l14.17-52.36h38.19L705,138.91ZM616,50h29.87L632.57,99.79H602.69Zm67.14,0L669.84,99.79H640L653.29,50Z"/><path class="cls-2" d="M965,109.13c-7.06,9.12-15.14,13.38-25.43,13.38-21.46,0-36.3-20-36.3-49.24,0-17.48,6-33.36,17.34-45.55C934,13.17,953.41,5.38,975.74,5.38c27,0,48.8,11.61,58.2,31,4.41,9,6.47,19,6.47,31.15,0,24.4-11.32,45.42-30,56-8.67,4.85-17.49,7.49-33.51,10C974.13,125.3,971.63,120.3,965,109.13ZM931.51,73.86c0,9.11,3.38,16.46,7.49,16.46,3.09,0,5.88-4.11,9.85-14.69a175.29,175.29,0,0,0,10.44-42.18C943.85,36.68,931.51,54.61,931.51,73.86ZM979.57,78c-3.68,11.31-7.65,20.28-11.32,26.3,12-.88,21-3.67,27.19-8.37,9.26-7.06,14.69-18.67,14.69-31.75,0-10.28-3.52-19.54-9.84-25.42a20.1,20.1,0,0,0-11-5.44C986.77,52.55,984.42,63.58,979.57,78Z"/><path class="cls-1" d="M975.74,11.68c24.56,0,44.2,10.26,52.55,27.49,4,8.07,5.82,17.09,5.82,28.37,0,22.12-10,41-26.76,50.5-7.05,3.95-14.27,6.3-26.3,8.42a114.91,114.91,0,0,0-8.13-16.29c11.23-1.29,19.88-4.33,26.34-9.25,10.91-8.32,17.17-21.72,17.17-36.76,0-12.08-4.32-23-11.85-30l0,0,0,0a26.3,26.3,0,0,0-14.11-7l-6.55-1.23L983,32.49c-2.48,19.09-4.77,29.65-9.42,43.48V76c-3.33,10.24-7.13,19.1-10.71,25l-1.75,2.87-1.08,1.4c-5.86,7.56-12.16,10.93-20.45,10.93-8.46,0-15.77-3.84-21.13-11.09-5.72-7.75-8.87-19.05-8.87-31.85C909.59,57.32,915,43,925.27,32c12-13.09,30-20.3,50.47-20.3M939,96.62c8,0,12-8.88,15.74-18.76a181.21,181.21,0,0,0,10.81-43.73l.93-8.63L958,27.28c-18.38,3.86-32.78,24.32-32.78,46.58,0,13.4,5.67,22.76,13.79,22.76M975.74,5.38c-22.33,0-41.73,7.79-55.11,22.34-11.31,12.19-17.34,28.07-17.34,45.55,0,29.25,14.84,49.24,36.3,49.24,10.29,0,18.37-4.26,25.43-13.38,6.61,11.17,9.11,16.17,11.9,24.4,16-2.5,24.84-5.14,33.51-10,18.66-10.58,30-31.6,30-56,0-12.19-2.06-22.19-6.47-31.15-9.4-19.4-31.15-31-58.2-31Zm-7.49,98.9c3.67-6,7.64-15,11.32-26.3,4.85-14.4,7.2-25.43,9.7-44.68a20.1,20.1,0,0,1,11,5.44c6.32,5.88,9.84,15.14,9.84,25.42,0,13.08-5.43,24.69-14.69,31.75-6.17,4.7-15.14,7.49-27.19,8.37Zm-9-70.83a175.29,175.29,0,0,1-10.44,42.18c-4,10.58-6.76,14.69-9.85,14.69-4.11,0-7.49-7.35-7.49-16.46,0-19.25,12.34-37.18,27.78-40.41Z"/><path class="cls-2" d="M1107.6,3.1c-1,3.23-1.18,4.11-2.5,10.58-.44,2.65-.74,4-1.47,7.79,10.43-1.18,15-1.91,19-3.09l.44,28.07h-.74c-.73,0-1.91.15-3.23.3-3.23.29-3.23.29-22.19,1.91A364.39,364.39,0,0,1,1073.65,107c-4.26,8.67-4.26,8.67-5.44,11.32l-27.92-15c10.29-14.11,17.34-28.51,26.6-54.08h-2.35c-1,0-2.65,0-11-.15-1.92-.15-3.09-.15-3.68-.15a14.21,14.21,0,0,0-2.2.15V21.47a135.64,135.64,0,0,0,22.78,1.47h3.52C1076,12.51,1076.88,6.33,1077,.45Zm61.58,127a76.27,76.27,0,0,0-16.91-14.55c-.88,7-2.79,10.73-7.49,14.69-6.17,5.15-16.75,8.23-28.22,8.23-12.78,0-23.51-3.82-29.83-10.72a28.06,28.06,0,0,1-7.35-19.11,30.23,30.23,0,0,1,18.08-27.92A46.19,46.19,0,0,1,1116,77.32c1.47,0,4.41.14,8.09.44a88.64,88.64,0,0,1-.74-11.91c0-4.26.3-9,.59-12,.29-1.76.29-1.76.44-3.23l28.51.88a76.28,76.28,0,0,0-1.61,17.64,133.24,133.24,0,0,0,1,15.43,102.55,102.55,0,0,1,21.46,11.76c.59.44,3.38,2.64,7.94,6.61Zm-52.62-27.78c-5.29,0-8.67,2.21-8.67,5.59s3.09,5.43,7.79,5.43c5.59,0,9-2.64,9-7.2a6.09,6.09,0,0,0-.3-2.35A20,20,0,0,0,1116.56,102.3Zm54.53-41.88A219.64,219.64,0,0,0,1123.32,39l14.41-24.1c19.54,6.76,31.74,12.05,45.85,20Z"/><path class="cls-1" d="M1082.88,7.28l16.8,1.46-.45,2.19-.3,1.49,0,.11,0,.12c-.29,1.75-.51,2.86-.88,4.7-.16.82-.34,1.76-.57,2.93l-1.61,8.41,8.5-1c5.25-.59,9.06-1.08,12.08-1.56l.23,14.47c-2.24.2-5.45.48-20.31,1.74l-4.29.37-1.22,4.14A356.41,356.41,0,0,1,1068,104.22c-1.16,2.37-2,4.09-2.66,5.41l-15.85-8.51C1058,88.3,1064.64,74,1072.81,51.39l3.06-8.44h-11.33c-1,0-2.55,0-10.61-.14V28.62c4.7.43,9.91.62,16.49.62h8.7l1-5.08c1.42-7.21,2.29-12.43,2.76-16.88m57.61,15.22a243.43,243.43,0,0,1,34.79,15l-6.87,14.07a221,221,0,0,0-35.68-16.06l7.76-13M1130,57l15.51.48a108.59,108.59,0,0,0-.52,11.57A139.6,139.6,0,0,0,1146,85.18l.39,3.69,3.42,1.45a97,97,0,0,1,20.13,11c.34.25,1.73,1.35,4,3.27l-6.68,14.54a83.31,83.31,0,0,0-11.54-8.85l-8.46-5.58L1146,114.75c-.74,6-2.17,8-5.27,10.64-5,4.17-14.28,6.77-24.19,6.77-10.94,0-20.11-3.16-25.16-8.66a21.8,21.8,0,0,1-5.72-14.88A24,24,0,0,1,1100,86.47a40.23,40.23,0,0,1,16-2.86c1.07,0,3.69.12,7.59.43l7.65.61-.9-7.63a83.4,83.4,0,0,1-.69-11.17c0-3,.15-6.19.34-8.81m-14.28,62.58c10.54,0,15.26-6.78,15.26-13.5a22,22,0,0,0-.13-2.31c-.46-3.82-2.61-5.34-4.31-5.94v0a26.28,26.28,0,0,0-9.94-1.85c-10.28,0-15,6.16-15,11.89s4.84,11.73,14.09,11.73M1077,.45c-.15,5.88-1,12.06-3.09,22.49h-3.52a135.64,135.64,0,0,1-22.78-1.47V49.1a14.21,14.21,0,0,1,2.2-.15c.59,0,1.76,0,3.68.15,8.37.15,10,.15,11,.15h2.35c-9.26,25.57-16.31,40-26.6,54.08l27.92,15c1.18-2.65,1.18-2.65,5.44-11.32a364.39,364.39,0,0,0,23.22-58.34c19-1.62,19-1.62,22.19-1.91,1.32-.15,2.5-.3,3.23-.3h.74l-.44-28.07c-4,1.18-8.53,1.91-19,3.09.73-3.82,1-5.14,1.47-7.79,1.32-6.47,1.47-7.35,2.5-10.58L1077,.45Zm60.7,14.41L1123.32,39a219.64,219.64,0,0,1,47.77,21.46l12.49-25.58c-14.11-7.93-26.31-13.22-45.85-20Zm-13.38,35.71c-.15,1.47-.15,1.47-.44,3.23-.29,3.09-.59,7.79-.59,12a88.64,88.64,0,0,0,.74,11.91c-3.68-.3-6.62-.44-8.09-.44a46.19,46.19,0,0,0-18.51,3.38,30.23,30.23,0,0,0-18.08,27.92,28.06,28.06,0,0,0,7.35,19.11c6.32,6.9,17,10.72,29.83,10.72,11.47,0,22-3.08,28.22-8.23,4.7-4,6.61-7.64,7.49-14.69a76.27,76.27,0,0,1,16.91,14.55l12.49-27.19c-4.56-4-7.35-6.17-7.94-6.61a102.55,102.55,0,0,0-21.46-11.76,133.24,133.24,0,0,1-1-15.43,76.28,76.28,0,0,1,1.61-17.64l-28.51-.88Zm-8.67,62.75c-4.7,0-7.79-2.2-7.79-5.43s3.38-5.59,8.67-5.59a20,20,0,0,1,7.79,1.47,6.09,6.09,0,0,1,.3,2.35c0,4.56-3.38,7.2-9,7.2Z"/><path class="cls-2" d="M1191,34.84c7.35.15,7.35.15,28.66-1.91,2.06-13.52,3.23-23.66,3.23-28.07a24.86,24.86,0,0,0-.15-2.94l31.45,2.8c-.44,1.47-2.05,10.14-5,26.3a29.8,29.8,0,0,1,4.85-.29c9.55,0,17.19,2.2,22.19,6.61,7.35,6.32,10.43,16,10.43,33.22,0,24.1-3.67,44.09-9.84,54.08a26.21,26.21,0,0,1-10,8.67,30.37,30.37,0,0,1-11.9,2.06c-6.61,0-14-1.18-23.51-3.68.29-5,.44-6.9.44-9.84a75,75,0,0,0-1.91-16.61c-2.94,7.94-4.12,10.88-10.88,26.16a42.88,42.88,0,0,0-2.35,5.58l-28.81-14.69c8.82-12.05,20.43-39.54,26.46-62.61a180,180,0,0,0-20.72,3.82Zm57.32,71.58c2.79,0,4.7-1.91,5.87-6.18,2.21-7.79,3.53-19,3.53-31.15,0-10-1.47-12.06-8.67-12.06-.73,0-1.47,0-5,.3A365.29,365.29,0,0,1,1231.07,102C1236.66,104.21,1245,106.42,1248.27,106.42ZM1304,18.53c14.4,18.81,24,39.83,29.68,66L1305,97.89c-4.7-29.39-12.93-50-26.74-67.75Z"/><path class="cls-1" d="M1229,8.8l17.58,1.57c-.76,4-1.88,10.07-3.6,19.53l-1.56,8.6,8.65-1.24a23.47,23.47,0,0,1,4-.23c8,0,14.29,1.74,18,5l0,0,0,0c5.86,5,8.25,13.27,8.25,28.44,0,22.36-3.4,41.77-8.87,50.7a20,20,0,0,1-7.28,6.31,25,25,0,0,1-9.3,1.5,75.55,75.55,0,0,1-16.92-2.24c.09-1.78.14-3.22.14-5a73.65,73.65,0,0,0-.81-11.17,48,48,0,0,0,11,2c3.35,0,9.36-1.4,11.94-10.75,2.42-8.58,3.76-20.25,3.76-32.87,0-9.29-1.16-18.35-15-18.35-1,0-2,0-5.52.31l-4.59.39-1,4.49a361.12,361.12,0,0,1-12.73,44l-.4,1.13-.74,2c-2.91,7.84-4.07,10.73-10.49,25.25L1197,119.86c8.51-14.3,18-37.82,23.44-58.59l2.34-9-9.2,1.13c-4.62.56-9.59,1.38-14.34,2.35l-1.35-14.64c3.82-.15,8.89-.64,22.35-1.94l4.89-.47.73-4.85c1.24-8.1,2.66-18.32,3.14-25.08m73,17.56c11.43,16,19.29,33.55,24.44,54.61l-16.6,7.74c-4.41-22.75-11.35-40.54-21.88-56l14-6.34M1222.69,1.92a24.86,24.86,0,0,1,.15,2.94c0,4.41-1.17,14.55-3.23,28.07-16.81,1.63-20.36,2-24.72,2-1.16,0-2.39,0-3.94-.06l2.65,28.66a180,180,0,0,1,20.72-3.82c-6,23.07-17.64,50.56-26.46,62.61L1216.67,137a42.88,42.88,0,0,1,2.35-5.58c6.76-15.28,7.94-18.22,10.88-26.16a75,75,0,0,1,1.91,16.61c0,2.94-.15,4.85-.44,9.84,9.55,2.5,16.9,3.68,23.51,3.68a30.37,30.37,0,0,0,11.9-2.06,26.21,26.21,0,0,0,10-8.67c6.17-10,9.84-30,9.84-54.08,0-17.2-3.08-26.9-10.43-33.22-5-4.41-12.64-6.61-22.19-6.61a29.8,29.8,0,0,0-4.85.29c2.94-16.16,4.55-24.83,5-26.3l-31.45-2.8Zm25.58,104.5c-3.24,0-11.61-2.21-17.2-4.41A365.29,365.29,0,0,0,1244,57.33c3.53-.3,4.27-.3,5-.3,7.2,0,8.67,2.06,8.67,12.06,0,12.19-1.32,23.36-3.53,31.15-1.17,4.27-3.08,6.18-5.87,6.18ZM1304,18.53l-25.72,11.61c13.81,17.78,22,38.36,26.74,67.75l28.66-13.37c-5.73-26.16-15.28-47.18-29.68-66Z"/><path class="cls-2" d="M1401.31,109.13c-7.06,9.12-15.14,13.38-25.43,13.38-21.45,0-36.3-20-36.3-49.24,0-17.48,6-33.36,17.35-45.55C1370.3,13.17,1389.7,5.38,1412,5.38c27,0,48.79,11.61,58.19,31,4.41,9,6.47,19,6.47,31.15,0,24.4-11.31,45.42-30,56-8.67,4.85-17.49,7.49-33.51,10C1410.42,125.3,1407.92,120.3,1401.31,109.13ZM1367.8,73.86c0,9.11,3.38,16.46,7.5,16.46,3.08,0,5.87-4.11,9.84-14.69a175.29,175.29,0,0,0,10.44-42.18C1380.15,36.68,1367.8,54.61,1367.8,73.86ZM1415.86,78c-3.68,11.31-7.64,20.28-11.32,26.3,12-.88,21-3.67,27.19-8.37,9.26-7.06,14.7-18.67,14.7-31.75,0-10.28-3.53-19.54-9.85-25.42a20.1,20.1,0,0,0-11-5.44C1423.06,52.55,1420.71,63.58,1415.86,78Z"/><path class="cls-1" d="M1412,11.68c24.55,0,44.19,10.26,52.54,27.49,4,8.07,5.82,17.09,5.82,28.37,0,22.12-10,41-26.75,50.5-7.06,3.95-14.28,6.3-26.31,8.42a114.75,114.75,0,0,0-8.12-16.29c11.23-1.29,19.87-4.33,26.33-9.25,10.91-8.32,17.18-21.72,17.18-36.76,0-12.08-4.33-23-11.86-30l0,0,0,0a26.19,26.19,0,0,0-14.11-7l-6.55-1.23-.86,6.61c-2.47,19.08-4.76,29.65-9.42,43.48V76c-3.33,10.24-7.13,19.11-10.71,25l-1.75,2.87-1.08,1.4c-5.85,7.56-12.16,10.93-20.45,10.93-8.46,0-15.76-3.84-21.13-11.09-5.72-7.75-8.87-19.05-8.87-31.85,0-15.95,5.42-30.23,15.68-41.29,12-13.09,30-20.3,50.48-20.3M1375.3,96.62c8,0,12-8.88,15.73-18.76a181.1,181.1,0,0,0,10.81-43.73l.94-8.63-8.49,1.78c-18.39,3.86-32.79,24.32-32.79,46.58,0,13.4,5.67,22.76,13.8,22.76M1412,5.38c-22.34,0-41.74,7.79-55.11,22.34-11.32,12.19-17.35,28.07-17.35,45.55,0,29.25,14.85,49.24,36.3,49.24,10.29,0,18.37-4.26,25.43-13.38,6.61,11.17,9.11,16.17,11.9,24.4,16-2.5,24.84-5.14,33.51-10,18.67-10.58,30-31.6,30-56,0-12.19-2.06-22.19-6.47-31.15-9.4-19.4-31.15-31-58.19-31Zm-7.5,98.9c3.68-6,7.64-15,11.32-26.3,4.85-14.4,7.2-25.43,9.7-44.68a20.1,20.1,0,0,1,11,5.44c6.32,5.88,9.85,15.14,9.85,25.42,0,13.08-5.44,24.69-14.7,31.75-6.17,4.7-15.14,7.49-27.19,8.37Zm-9-70.83a175.29,175.29,0,0,1-10.44,42.18c-4,10.58-6.76,14.69-9.84,14.69-4.12,0-7.5-7.35-7.5-16.46,0-19.25,12.35-37.18,27.78-40.41Z"/><path class="cls-2" d="M1513.8,44.4a212.47,212.47,0,0,0,40.86-13.67c10.14-4.56,15.58-7.5,19.84-11l18.66,27c-28.66,13.67-50.26,20.87-79.36,26.45V88.49c0,8.52.3,11,1.76,12.19,1.77,1.47,8.53,2.36,19.11,2.36,8.82,0,20.13-.59,28.81-1.47a124.73,124.73,0,0,0,26.74-5.3l1,32.19h-1.76c-2.06,0-7.35.29-13.82.88-16,1.47-32.18,2.35-44.23,2.35-20.87,0-31.31-1.76-38.36-6.61-5-3.38-7.79-8.67-9-16.46-.44-2.94-.44-4.56-.58-16.9l-.15-68.78c0-9.55-.15-11.32-.73-15.73h32a105.26,105.26,0,0,0-.88,15.73Z"/><path class="cls-1" d="M1507.73,13.51c-.15,2.52-.23,5.51-.23,9.43V52.28l7.69-1.74a217.77,217.77,0,0,0,42-14h0l0,0a135.93,135.93,0,0,0,15.7-7.94l10.81,15.67C1558.82,55.63,1538.87,62,1512.61,67l-5.11,1V88.49c0,8.57,0,13.76,4.07,17.06,1.5,1.25,4.69,3.78,23.1,3.78,8.91,0,20.47-.59,29.46-1.5a133.86,133.86,0,0,0,20-3.33l.57,17.84c-2.57.15-5.87.39-9.65.73-16.11,1.48-32,2.33-43.66,2.33-19.27,0-29-1.55-34.83-5.54-2.3-1.55-5.08-4.34-6.27-12.17-.34-2.31-.37-3.58-.5-14.45V91.68l-.15-68.74c0-4.38,0-7.2-.13-9.43h18.18m7-6.3h-32c.58,4.41.73,6.18.73,15.73l.15,68.78c.14,12.34.14,14,.58,16.9,1.18,7.79,4,13.08,9,16.46,7.05,4.85,17.49,6.61,38.36,6.61,12,0,28.21-.88,44.23-2.35,6.47-.59,11.76-.88,13.82-.88h1.76l-1-32.18a125.36,125.36,0,0,1-26.74,5.29c-8.68.88-20,1.47-28.81,1.47-10.58,0-17.34-.89-19.11-2.36-1.46-1.17-1.76-3.67-1.76-12.19V73.2c29.1-5.58,50.7-12.78,79.36-26.45l-18.66-27c-4.26,3.52-9.7,6.46-19.84,11A212.47,212.47,0,0,1,1513.8,44.4V22.94a105.26,105.26,0,0,1,.88-15.73Z"/><path class="cls-2" d="M1598.86,135.29a144.54,144.54,0,0,0,.88-17.93V18.6a88.86,88.86,0,0,0-.88-15h33.06c-.29,4-.44,6-.44,9.12V44.62c27.78,8.82,45.12,16.75,67.16,30.42l-16.31,29.39c-12-8.38-15.87-10.73-24.4-15.14a196.51,196.51,0,0,0-19.69-9.4c-.44-.15-1.91-.74-2.35-.88l-2.06-.89c-.73-.29-.88-.29-1.61-.58l-.74-.3V118c0,6.47.15,11.76.59,17.34Z"/><path class="cls-1" d="M1625.23,9.91c0,.9,0,1.8,0,2.82v36.5l4.4,1.39c24.68,7.84,41.22,15.06,60.62,26.65l-10,18a156.42,156.42,0,0,0-19.32-11.59A201.47,201.47,0,0,0,1640.55,74l-.14-.06-.16,0-.92-.35-1.15-.44-1.87-.79-.07,0-.06,0c-.55-.22-.9-.34-1.16-.42l-.47-.17-.73-.3-8.64-3.45v50c0,4.17.07,7.73.2,11h-19.65c.25-3.7.31-6.92.31-11.64V18.6c0-3.4,0-6.13-.19-8.69h19.38m6.69-6.3h-33.06a88.86,88.86,0,0,1,.88,15v98.76a144.54,144.54,0,0,1-.88,17.93h33.21c-.44-5.58-.59-10.87-.59-17.34V77.24l.74.3c.73.29.88.29,1.61.58l2.06.89c.44.14,1.91.73,2.35.88a196.51,196.51,0,0,1,19.69,9.4c8.53,4.41,12.35,6.76,24.4,15.14L1698.64,75c-22-13.67-39.38-21.6-67.16-30.42V12.73c0-3.09.15-5.15.44-9.12Z"/></svg>