<svg width="20" height="15" viewBox="0 0 20 15" fill="none" xmlns="http://www.w3.org/2000/svg">
<path d="M17.6242 4.75239C18.9366 4.75239 20.0004 3.68853 20.0004 2.37619C20.0004 1.06386 18.9366 0 17.6242 0C16.3119 0 15.248 1.06386 15.248 2.37619C15.248 3.68853 16.3119 4.75239 17.6242 4.75239Z" fill="#21BDDB"/>
<path fill-rule="evenodd" clip-rule="evenodd" d="M8.00274 9.19267C7.86009 9.10002 7.45411 8.55565 6.33123 5.87405C6.26113 5.7058 6.19591 5.56072 6.13434 5.43636L5.90452 4.88285L3.93675 0.131073H0L1.96838 4.88285L3.93675 9.63768L5.75456 14.0267C5.76704 14.0564 5.78798 14.0817 5.81476 14.0995C5.84154 14.1172 5.87298 14.1267 5.90513 14.1267C5.93728 14.1267 5.96871 14.1172 5.9955 14.0995C6.02228 14.0817 6.04322 14.0564 6.0557 14.0267L8.03383 9.29143C8.04085 9.27391 8.0416 9.2545 8.03593 9.2365C8.03026 9.21849 8.01853 9.20301 8.00274 9.19267Z" fill="white"/>
<path fill-rule="evenodd" clip-rule="evenodd" d="M15.3777 9.19267C15.2351 9.10002 14.8291 8.55565 13.7062 5.87405C13.6361 5.7058 13.5703 5.56072 13.5087 5.43575L13.2801 4.88285L11.3118 0.131073H7.375L9.34338 4.88285L11.3118 9.63768L13.1296 14.0267C13.142 14.0564 13.163 14.0817 13.1898 14.0995C13.2165 14.1172 13.248 14.1267 13.2801 14.1267C13.3123 14.1267 13.3437 14.1172 13.3705 14.0995C13.3973 14.0817 13.4182 14.0564 13.4307 14.0267L15.4088 9.29204C15.4158 9.27442 15.4165 9.25495 15.4108 9.23687C15.4052 9.21879 15.3935 9.20319 15.3777 9.19267Z" fill="white"/>
</svg>
